<svg width="1440" height="1080" viewBox="0 0 1440 1080" fill="none" xmlns="http://www.w3.org/2000/svg">
  <defs>
    <linearGradient id="sky" x1="720" y1="0" x2="720" y2="1080" gradientUnits="userSpaceOnUse">
      <stop stop-color="#2B6FD9"/>
      <stop offset="0.52" stop-color="#0D4CAA"/>
      <stop offset="1" stop-color="#082D68"/>
    </linearGradient>
    <linearGradient id="water" x1="720" y1="690" x2="720" y2="1080" gradientUnits="userSpaceOnUse">
      <stop stop-color="#0D4EAE"/>
      <stop offset="1" stop-color="#071E47"/>
    </linearGradient>
    <linearGradient id="ship" x1="366" y1="684" x2="1042" y2="684" gradientUnits="userSpaceOnUse">
      <stop stop-color="#0E2E68"/>
      <stop offset="1" stop-color="#194EA4"/>
    </linearGradient>
    <linearGradient id="dock" x1="1010" y1="500" x2="1328" y2="500" gradientUnits="userSpaceOnUse">
      <stop stop-color="#0A2A63"/>
      <stop offset="1" stop-color="#123F89"/>
    </linearGradient>
  </defs>

  <rect width="1440" height="1080" fill="url(#sky)"/>
  <circle cx="1146" cy="188" r="92" fill="#FFFFFF" fill-opacity="0.10"/>
  <circle cx="1180" cy="154" r="34" fill="#FFFFFF" fill-opacity="0.14"/>
  <circle cx="170" cy="212" r="58" fill="#FFFFFF" fill-opacity="0.08"/>
  <circle cx="446" cy="236" r="170" fill="#7CC2FF" fill-opacity="0.10"/>
  <circle cx="574" cy="296" r="108" fill="#9BD4FF" fill-opacity="0.08"/>

  <path d="M152 228C264 184 402 178 554 214C658 238 768 288 896 338" stroke="#A9D3FF" stroke-opacity="0.6" stroke-width="8" stroke-linecap="round" stroke-dasharray="8 20"/>
  <path d="M210 158L250 180L220 190L200 222L192 190L162 178L198 174L210 158Z" fill="#E4F2FF" fill-opacity="0.88"/>

  <g opacity="0.94">
    <rect x="136" y="164" width="280" height="152" rx="24" fill="#FFFFFF" fill-opacity="0.12" stroke="#FFFFFF" stroke-opacity="0.18"/>
    <rect x="168" y="198" width="112" height="14" rx="7" fill="#E6F3FF"/>
    <rect x="168" y="228" width="188" height="10" rx="5" fill="#A8CBF8"/>
    <rect x="168" y="252" width="152" height="10" rx="5" fill="#A8CBF8"/>
    <rect x="168" y="284" width="208" height="12" rx="6" fill="#6FB0FF"/>
  </g>

  <g opacity="0.95">
    <rect x="120" y="382" width="418" height="212" rx="26" fill="#0D357A" fill-opacity="0.7" stroke="#8FC4FF" stroke-opacity="0.18"/>
    <rect x="152" y="414" width="126" height="14" rx="7" fill="#D9EEFF"/>
    <rect x="152" y="444" width="178" height="12" rx="6" fill="#9FC9F8"/>
    <rect x="152" y="476" width="92" height="72" rx="14" fill="#123F89"/>
    <rect x="260" y="476" width="92" height="72" rx="14" fill="#154A9F"/>
    <rect x="368" y="476" width="138" height="72" rx="14" fill="#11326F"/>
    <rect x="176" y="496" width="46" height="12" rx="6" fill="#6FB0FF"/>
    <rect x="284" y="496" width="46" height="12" rx="6" fill="#6FB0FF"/>
    <rect x="392" y="496" width="92" height="12" rx="6" fill="#6FB0FF"/>
  </g>

  <g opacity="0.96">
    <path d="M86 640H490V738H86V640Z" fill="#0B2B66"/>
    <path d="M124 568H422V640H124V568Z" fill="#174C9A"/>
    <rect x="148" y="600" width="34" height="40" rx="8" fill="#97C9FF"/>
    <rect x="196" y="600" width="34" height="40" rx="8" fill="#97C9FF"/>
    <rect x="244" y="600" width="34" height="40" rx="8" fill="#97C9FF"/>
    <rect x="292" y="600" width="34" height="40" rx="8" fill="#97C9FF"/>
    <rect x="340" y="600" width="34" height="40" rx="8" fill="#97C9FF"/>
    <rect x="388" y="600" width="34" height="40" rx="8" fill="#97C9FF"/>
  </g>

  <path d="M0 596C132 550 248 534 348 548C484 566 558 636 686 636C822 636 916 544 1042 520C1168 496 1300 530 1440 610V1080H0V596Z" fill="#FFFFFF" fill-opacity="0.08"/>
  <rect y="692" width="1440" height="388" fill="url(#water)"/>
  <path d="M0 744C184 716 390 706 612 722C874 742 1174 820 1440 790V1080H0V744Z" fill="#FFFFFF" fill-opacity="0.08"/>

  <g opacity="0.65">
    <path d="M112 332L194 290" stroke="#8CC4FF" stroke-width="8" stroke-linecap="round"/>
    <path d="M150 388L250 314" stroke="#8CC4FF" stroke-width="8" stroke-linecap="round"/>
    <path d="M210 410L302 340" stroke="#8CC4FF" stroke-width="8" stroke-linecap="round"/>
  </g>

  <g opacity="0.98">
    <rect x="202" y="710" width="74" height="40" rx="8" fill="#F19E38"/>
    <rect x="278" y="710" width="74" height="40" rx="8" fill="#2E84F5"/>
    <rect x="354" y="710" width="74" height="40" rx="8" fill="#7EC162"/>
    <rect x="240" y="668" width="74" height="40" rx="8" fill="#56B3FF"/>
    <rect x="316" y="668" width="74" height="40" rx="8" fill="#F05E5E"/>
  </g>

  <g opacity="0.96">
    <rect x="918" y="220" width="304" height="176" rx="22" fill="#FFFFFF" fill-opacity="0.12" stroke="#FFFFFF" stroke-opacity="0.16"/>
    <rect x="950" y="256" width="118" height="14" rx="7" fill="#D7EBFF"/>
    <rect x="950" y="286" width="210" height="10" rx="5" fill="#A8CBF8"/>
    <rect x="950" y="314" width="188" height="10" rx="5" fill="#A8CBF8"/>
    <rect x="950" y="352" width="240" height="12" rx="6" fill="#6FB0FF"/>
  </g>

  <g opacity="0.98">
    <rect x="1066" y="434" width="226" height="130" rx="20" fill="#FFFFFF" fill-opacity="0.14" stroke="#FFFFFF" stroke-opacity="0.18"/>
    <rect x="1092" y="464" width="82" height="12" rx="6" fill="#D7EBFF"/>
    <rect x="1092" y="492" width="144" height="10" rx="5" fill="#A8CBF8"/>
    <rect x="1092" y="520" width="126" height="10" rx="5" fill="#A8CBF8"/>
  </g>

  <g>
    <rect x="1020" y="308" width="26" height="392" rx="12" fill="url(#dock)"/>
    <rect x="1114" y="274" width="24" height="426" rx="12" fill="url(#dock)"/>
    <rect x="1202" y="248" width="24" height="452" rx="12" fill="url(#dock)"/>

    <path d="M1032 322H1130" stroke="#B9DAFF" stroke-width="16" stroke-linecap="round"/>
    <path d="M1126 290H1218" stroke="#B9DAFF" stroke-width="16" stroke-linecap="round"/>
    <path d="M1220 266H1310" stroke="#B9DAFF" stroke-width="16" stroke-linecap="round"/>

    <path d="M1082 322V470L1018 536" stroke="#B9DAFF" stroke-width="12" stroke-linecap="round"/>
    <path d="M1170 290V452L1102 518" stroke="#B9DAFF" stroke-width="12" stroke-linecap="round"/>
    <path d="M1262 266V432L1198 498" stroke="#B9DAFF" stroke-width="12" stroke-linecap="round"/>
  </g>

  <g>
    <path d="M366 648H1042L972 788H440L366 648Z" fill="url(#ship)"/>
    <rect x="508" y="582" width="348" height="74" rx="18" fill="#14397B"/>
    <rect x="546" y="536" width="172" height="48" rx="14" fill="#1B57BF"/>
    <rect x="578" y="504" width="44" height="34" rx="10" fill="#98C9FF"/>

    <rect x="468" y="530" width="78" height="38" rx="8" fill="#F19E38"/>
    <rect x="548" y="530" width="78" height="38" rx="8" fill="#2E84F5"/>
    <rect x="628" y="530" width="78" height="38" rx="8" fill="#7EC162"/>
    <rect x="708" y="530" width="78" height="38" rx="8" fill="#F05E5E"/>
    <rect x="788" y="530" width="78" height="38" rx="8" fill="#56B3FF"/>

    <rect x="492" y="572" width="78" height="38" rx="8" fill="#56B3FF"/>
    <rect x="572" y="572" width="78" height="38" rx="8" fill="#F19E38"/>
    <rect x="652" y="572" width="78" height="38" rx="8" fill="#7EC162"/>
    <rect x="732" y="572" width="78" height="38" rx="8" fill="#2E84F5"/>
    <rect x="812" y="572" width="78" height="38" rx="8" fill="#F05E5E"/>
  </g>

  <g>
    <rect x="1018" y="700" width="252" height="66" rx="16" fill="#FFFFFF" fill-opacity="0.16" stroke="#FFFFFF" stroke-opacity="0.16"/>
    <rect x="1048" y="724" width="64" height="16" rx="8" fill="#D7EBFF"/>
    <rect x="1122" y="724" width="118" height="16" rx="8" fill="#91C0FF"/>
  </g>

  <g opacity="0.85">
    <path d="M230 768H736" stroke="#FFFFFF" stroke-opacity="0.16" stroke-width="8" stroke-linecap="round"/>
    <path d="M188 816H684" stroke="#FFFFFF" stroke-opacity="0.10" stroke-width="8" stroke-linecap="round"/>
    <path d="M154 864H628" stroke="#FFFFFF" stroke-opacity="0.08" stroke-width="8" stroke-linecap="round"/>
  </g>
</svg>
